<svg width="269" height="310" viewBox="0 0 269 310" fill="none" xmlns="http://www.w3.org/2000/svg">
<rect width="269" height="310" rx="15" fill="white"/>
<g clip-path="url(#clip0_11_301)">
<path d="M139.169 126.506C166.051 126.506 187.838 102.439 187.838 72.7531C187.838 43.0671 166.051 19 139.169 19C112.288 19 90.5012 43.0671 90.5012 72.7531C90.5012 102.439 112.288 126.506 139.169 126.506ZM158.447 146.664H119.892C83.5089 146.664 54 179.252 54 219.44C54 227.478 59.901 234 67.1784 234H211.168C218.445 234.013 224.339 227.503 224.339 219.44C224.339 179.252 194.834 146.664 158.447 146.664Z" fill="#E5E5E5"/>
</g>
<path d="M14.676 275.38V269.452H16.132C16.6347 268.655 16.99 267.745 17.198 266.722C17.4233 265.699 17.536 264.425 17.536 262.9V259.286H27.442V269.452H29.522V275.38H26.766V272H17.432V275.38H14.676ZM19.07 269.452H24.4V261.782H20.318V263.654C20.318 264.746 20.2053 265.803 19.98 266.826C19.772 267.849 19.4687 268.724 19.07 269.452ZM37.7423 272.26C36.4249 272.26 35.2809 271.991 34.3103 271.454C33.3396 270.917 32.5856 270.154 32.0483 269.166C31.5109 268.161 31.2423 266.982 31.2423 265.63C31.2423 264.278 31.5109 263.108 32.0483 262.12C32.5856 261.132 33.3396 260.369 34.3103 259.832C35.2809 259.295 36.4249 259.026 37.7423 259.026C39.0596 259.026 40.2036 259.295 41.1743 259.832C42.1449 260.369 42.8989 261.132 43.4363 262.12C43.9736 263.108 44.2423 264.278 44.2423 265.63C44.2423 266.982 43.9736 268.161 43.4363 269.166C42.8989 270.154 42.1449 270.917 41.1743 271.454C40.2036 271.991 39.0596 272.26 37.7423 272.26ZM37.7423 269.79C38.7129 269.79 39.4929 269.443 40.0823 268.75C40.6716 268.039 40.9663 266.999 40.9663 265.63C40.9663 264.243 40.6716 263.212 40.0823 262.536C39.4929 261.843 38.7129 261.496 37.7423 261.496C36.7716 261.496 35.9916 261.843 35.4023 262.536C34.8129 263.212 34.5183 264.243 34.5183 265.63C34.5183 266.999 34.8129 268.039 35.4023 268.75C35.9916 269.443 36.7716 269.79 37.7423 269.79ZM53.2082 272.26C51.1629 272.26 49.5422 271.636 48.3462 270.388C47.1675 269.14 46.5782 267.303 46.5782 264.876V262.978C46.5782 260.413 47.1502 258.463 48.2942 257.128C49.4382 255.776 51.1369 254.831 53.3902 254.294L57.8362 253.202L58.7982 255.776L53.6242 256.998C52.3242 257.31 51.3362 257.891 50.6602 258.74C49.9842 259.572 49.6462 260.629 49.6462 261.912V262.042C50.0275 261.262 50.5909 260.629 51.3362 260.144C52.0989 259.659 53.0262 259.416 54.1182 259.416C55.1755 259.416 56.1115 259.676 56.9262 260.196C57.7582 260.699 58.4082 261.418 58.8762 262.354C59.3442 263.29 59.5782 264.408 59.5782 265.708C59.5782 267.043 59.3095 268.204 58.7722 269.192C58.2522 270.163 57.5155 270.917 56.5622 271.454C55.6089 271.991 54.4909 272.26 53.2082 272.26ZM53.0782 269.79C54.1009 269.79 54.8895 269.452 55.4442 268.776C56.0162 268.1 56.3022 267.121 56.3022 265.838C56.3022 264.573 56.0162 263.602 55.4442 262.926C54.8895 262.233 54.1009 261.886 53.0782 261.886C52.0729 261.886 51.2842 262.224 50.7122 262.9C50.1402 263.576 49.8542 264.512 49.8542 265.708C49.8542 267.043 50.1315 268.057 50.6862 268.75C51.2582 269.443 52.0555 269.79 53.0782 269.79ZM66.8021 272.26C65.8835 272.26 65.0601 272.087 64.3321 271.74C63.6215 271.376 63.0581 270.891 62.6421 270.284C62.2435 269.677 62.0441 268.993 62.0441 268.23C62.0441 267.294 62.2868 266.557 62.7721 266.02C63.2575 265.465 64.0461 265.067 65.1381 264.824C66.2301 264.581 67.6948 264.46 69.5321 264.46H70.4421V263.914C70.4421 263.047 70.2515 262.423 69.8701 262.042C69.4888 261.661 68.8475 261.47 67.9461 261.47C67.2355 261.47 66.5075 261.583 65.7621 261.808C65.0168 262.016 64.2628 262.345 63.5001 262.796L62.5641 260.586C63.0148 260.274 63.5435 260.005 64.1501 259.78C64.7741 259.537 65.4241 259.355 66.1001 259.234C66.7935 259.095 67.4435 259.026 68.0501 259.026C69.9048 259.026 71.2828 259.459 72.1841 260.326C73.0855 261.175 73.5361 262.501 73.5361 264.304V272H70.4941V269.972C70.1995 270.683 69.7315 271.246 69.0901 271.662C68.4488 272.061 67.6861 272.26 66.8021 272.26ZM67.4781 270.024C68.3275 270.024 69.0295 269.729 69.5841 269.14C70.1561 268.551 70.4421 267.805 70.4421 266.904V266.332H69.5581C67.9288 266.332 66.7935 266.462 66.1521 266.722C65.5281 266.965 65.2161 267.415 65.2161 268.074C65.2161 268.646 65.4155 269.114 65.8141 269.478C66.2128 269.842 66.7675 270.024 67.4781 270.024ZM77.1644 272V259.286H84.0284C85.675 259.286 86.8537 259.581 87.5644 260.17C88.2924 260.742 88.6564 261.557 88.6564 262.614C88.6564 263.273 88.4744 263.845 88.1104 264.33C87.7464 264.815 87.2437 265.171 86.6024 265.396C87.4344 265.587 88.0584 265.951 88.4744 266.488C88.8904 267.025 89.0984 267.675 89.0984 268.438C89.0984 269.53 88.6824 270.397 87.8504 271.038C87.0184 271.679 85.8137 272 84.2364 272H77.1644ZM80.1804 264.512H83.7164C84.3404 264.512 84.8257 264.373 85.1724 264.096C85.519 263.801 85.6924 263.394 85.6924 262.874C85.6924 262.354 85.519 261.964 85.1724 261.704C84.8257 261.427 84.3404 261.288 83.7164 261.288H80.1804V264.512ZM80.1804 269.998H83.9504C85.4064 269.998 86.1344 269.417 86.1344 268.256C86.1344 267.095 85.4064 266.514 83.9504 266.514H80.1804V269.998ZM91.9417 272V259.286H94.8797V267.762L101.25 259.286H103.954V272H101.016V263.524L94.6457 272H91.9417ZM110.311 272V261.834H105.969V259.286H117.929V261.834H113.561V272H110.311ZM119.922 272V259.286H123.172V263.498H126.526C128.208 263.498 129.473 263.853 130.322 264.564C131.189 265.275 131.622 266.315 131.622 267.684C131.622 268.984 131.163 270.033 130.244 270.83C129.343 271.61 128.104 272 126.526 272H119.922ZM123.172 269.868H126.032C126.847 269.868 127.48 269.695 127.93 269.348C128.381 268.984 128.606 268.438 128.606 267.71C128.606 266.999 128.381 266.479 127.93 266.15C127.48 265.803 126.847 265.63 126.032 265.63H123.172V269.868ZM148.737 276.68V270.232C148.078 271.584 146.96 272.26 145.383 272.26C144.447 272.26 143.624 271.991 142.913 271.454C142.202 270.899 141.639 270.128 141.223 269.14C140.824 268.135 140.625 266.965 140.625 265.63C140.625 264.278 140.824 263.108 141.223 262.12C141.639 261.132 142.202 260.369 142.913 259.832C143.624 259.295 144.447 259.026 145.383 259.026C146.163 259.026 146.839 259.208 147.411 259.572C147.983 259.919 148.425 260.413 148.737 261.054V253.67H151.987V261.002C152.299 260.378 152.741 259.893 153.313 259.546C153.902 259.199 154.57 259.026 155.315 259.026C156.251 259.026 157.074 259.295 157.785 259.832C158.513 260.369 159.076 261.132 159.475 262.12C159.874 263.108 160.073 264.278 160.073 265.63C160.073 266.965 159.874 268.135 159.475 269.14C159.076 270.128 158.522 270.899 157.811 271.454C157.1 271.991 156.268 272.26 155.315 272.26C153.79 272.26 152.68 271.593 151.987 270.258V276.68H148.737ZM146.345 269.816C147.09 269.816 147.68 269.478 148.113 268.802C148.564 268.109 148.789 267.051 148.789 265.63C148.789 264.226 148.564 263.186 148.113 262.51C147.662 261.817 147.073 261.47 146.345 261.47C145.6 261.47 145.002 261.817 144.551 262.51C144.1 263.186 143.875 264.226 143.875 265.63C143.875 267.051 144.1 268.109 144.551 268.802C145.002 269.478 145.6 269.816 146.345 269.816ZM154.353 269.816C155.116 269.816 155.714 269.478 156.147 268.802C156.598 268.109 156.823 267.051 156.823 265.63C156.823 264.226 156.598 263.186 156.147 262.51C155.696 261.817 155.098 261.47 154.353 261.47C153.608 261.47 153.018 261.817 152.585 262.51C152.152 263.186 151.935 264.226 151.935 265.63C151.935 267.051 152.152 268.109 152.585 268.802C153.018 269.478 153.608 269.816 154.353 269.816ZM168.91 272.26C167.593 272.26 166.449 271.991 165.478 271.454C164.508 270.917 163.754 270.154 163.216 269.166C162.679 268.161 162.41 266.982 162.41 265.63C162.41 264.278 162.679 263.108 163.216 262.12C163.754 261.132 164.508 260.369 165.478 259.832C166.449 259.295 167.593 259.026 168.91 259.026C170.228 259.026 171.372 259.295 172.342 259.832C173.313 260.369 174.067 261.132 174.604 262.12C175.142 263.108 175.41 264.278 175.41 265.63C175.41 266.982 175.142 268.161 174.604 269.166C174.067 270.154 173.313 270.917 172.342 271.454C171.372 271.991 170.228 272.26 168.91 272.26ZM168.91 269.79C169.881 269.79 170.661 269.443 171.25 268.75C171.84 268.039 172.134 266.999 172.134 265.63C172.134 264.243 171.84 263.212 171.25 262.536C170.661 261.843 169.881 261.496 168.91 261.496C167.94 261.496 167.16 261.843 166.57 262.536C165.981 263.212 165.686 264.243 165.686 265.63C165.686 266.999 165.981 268.039 166.57 268.75C167.16 269.443 167.94 269.79 168.91 269.79ZM181.1 272V261.834H176.758V259.286H188.718V261.834H184.35V272H181.1ZM196.408 272.26C195.091 272.26 193.947 271.991 192.976 271.454C192.006 270.917 191.252 270.154 190.714 269.166C190.177 268.161 189.908 266.982 189.908 265.63C189.908 264.278 190.177 263.108 190.714 262.12C191.252 261.132 192.006 260.369 192.976 259.832C193.947 259.295 195.091 259.026 196.408 259.026C197.726 259.026 198.87 259.295 199.84 259.832C200.811 260.369 201.565 261.132 202.102 262.12C202.64 263.108 202.908 264.278 202.908 265.63C202.908 266.982 202.64 268.161 202.102 269.166C201.565 270.154 200.811 270.917 199.84 271.454C198.87 271.991 197.726 272.26 196.408 272.26ZM196.408 269.79C197.379 269.79 198.159 269.443 198.748 268.75C199.338 268.039 199.632 266.999 199.632 265.63C199.632 264.243 199.338 263.212 198.748 262.536C198.159 261.843 197.379 261.496 196.408 261.496C195.438 261.496 194.658 261.843 194.068 262.536C193.479 263.212 193.184 264.243 193.184 265.63C193.184 266.999 193.479 268.039 194.068 268.75C194.658 269.443 195.438 269.79 196.408 269.79Z" fill="#E5E5E5"/>
<path d="M265.786 262.438C265.786 263.75 264.346 264.813 262.571 264.813H248.107V275.501C248.107 276.814 246.668 277.875 244.893 277.875C243.118 277.875 241.679 276.814 241.679 275.501V264.813H227.214C225.439 264.813 224 263.75 224 262.438C224 261.125 225.439 260.063 227.214 260.063H241.679V249.376C241.679 248.063 243.118 247 244.893 247C246.668 247 248.107 248.063 248.107 249.376V260.063H262.571C264.349 260.062 265.786 261.124 265.786 262.438Z" fill="#E5E5E5"/>
<defs>
<clipPath id="clip0_11_301">
<rect width="179" height="215" fill="white" transform="translate(45 19)"/>
</clipPath>
</defs>
</svg>
